<svg xmlns="http://www.w3.org/2000/svg" viewBox="0 0 640 480">
  <path fill="#012169" d="M0 0h640v480H0z"/>
  <path fill="#FFF" d="M75 0l244 181L562 0h78v62L400 241l240 178v61h-80L320 301 81 480H0v-60l239-178L0 64V0h75z"/>
  <path fill="#C8102E" d="M424 294l216 166v20h-59L320 281 59 480H0v-20l216-166 31-25 31 25 29-23 29 23 88 2v-2l-2-88zM640 0v20L424 186l-29-23-29 23-31-25-31 25-216-166V0h59l261 199L581 0h59z"/>
  <path fill="#FFF" d="M241 0v480h160V0H241zM0 160v160h640V160H0z"/>
  <path fill="#C8102E" d="M0 193v96h640v-96H0zM273 0v480h96V0h-96z"/>
</svg>
